<svg width="16" height="16" viewBox="0 0 16 16" fill="none" xmlns="http://www.w3.org/2000/svg">
<rect width="16" height="16" fill="white"/>
<path d="M7.99967 14.6667C4.31945 14.6626 1.33705 11.6802 1.33301 8.00001V7.86667C1.40629 4.20303 4.42273 1.28531 8.08681 1.33393C11.7509 1.38255 14.6888 4.37927 14.6649 8.04354C14.6409 11.7079 11.6641 14.6659 7.99967 14.6667ZM7.99967 2.66667C5.05415 2.66667 2.66634 5.05449 2.66634 8.00001C2.66634 10.9455 5.05415 13.3333 7.99967 13.3333C10.9452 13.3333 13.333 10.9455 13.333 8.00001C13.3297 5.05586 10.9438 2.66998 7.99967 2.66667ZM7.99967 11.3333L7.05967 10.3933L8.77967 8.66667H4.66634V7.33334H8.77967L7.05967 5.60667L7.99967 4.66667L11.333 8.00001L7.99967 11.3333Z" fill="#CACACA"/>
</svg>
